# WaveFront *.obj file (generated by CINEMA 4D)

mtllib ./O.mtl

v -100 -100 100
v -100 100 100
v 100 -100 100
v 100 100 100
v 100 -100 -100
v 100 100 -100
v -100 -100 -100
v -100 100 -100
v -32.11154556274414 -37.76123046875 74.42554473876953
v -32.11154556274414 37.76123046875 74.42554473876953
v 32.11154556274414 -37.76123046875 74.42554473876953
v 32.11154556274414 37.76123046875 74.42554473876953
v 68.32244110107422 -37.76123046875 34.98000717163086
v 68.32244110107422 37.76123046875 34.98000717163086
v 68.32244110107422 -37.76123046875 -34.98000717163086
v 68.32244110107422 37.76123046875 -34.98000717163086
v 32.11154556274414 -37.76123046875 -74.42554473876953
v 32.11154556274414 37.76123046875 -74.42554473876953
v -32.11154556274414 -37.76123046875 -74.42554473876953
v -32.11154556274414 37.76123046875 -74.42554473876953
v -68.32244110107422 -37.76123046875 34.98000717163086
v -68.32244110107422 37.76123046875 34.98000717163086
v -68.32244110107422 -37.76123046875 -34.98000717163086
v -68.32244110107422 37.76123046875 -34.98000717163086
v -32.11154556274414 80.34304809570312 34.98000717163086
v 32.11154556274414 80.34304809570312 34.98000717163086
v 32.11154556274414 80.34304809570312 -34.98000717163086
v -32.11154556274414 80.34304809570312 -34.98000717163086
v -32.11154556274414 -80.34304809570312 34.98000717163086
v 32.11154556274414 -80.34304809570312 34.98000717163086
v 32.11154556274414 -80.34304809570312 -34.98000717163086
v -32.11154556274414 -80.34304809570312 -34.98000717163086
v -12.90884208679199 -15.18001461029053 27.30606842041016
v -12.90884208679199 15.18001461029053 27.30606842041016
v 12.90884208679199 -15.18001461029053 27.30606842041016
v 12.90884208679199 15.18001461029053 27.30606842041016
v 24.85262107849121 -15.18001461029053 14.06196212768555
v 24.85262107849121 15.18001461029053 14.06196212768555
v 24.85262107849121 -15.18001461029053 -14.06196212768555
v 24.85262107849121 15.18001461029053 -14.06196212768555
v 12.90884208679199 -15.18001461029053 -27.30606842041016
v 12.90884208679199 15.18001461029053 -27.30606842041016
v -12.90884208679199 -15.18001461029053 -27.30606842041016
v -12.90884208679199 15.18001461029053 -27.30606842041016
v -24.85262107849121 -15.18001461029053 14.06196212768555
v -24.85262107849121 15.18001461029053 14.06196212768555
v -24.85262107849121 -15.18001461029053 -14.06196212768555
v -24.85262107849121 15.18001461029053 -14.06196212768555
v -12.90884208679199 29.68490409851074 14.06196212768555
v 12.90884208679199 29.68490409851074 14.06196212768555
v 12.90884208679199 29.68490409851074 -14.06196212768555
v -12.90884208679199 29.68490409851074 -14.06196212768555
v -12.90884208679199 -29.68490409851074 14.06196212768555
v 12.90884208679199 -29.68490409851074 14.06196212768555
v 12.90884208679199 -29.68490409851074 -14.06196212768555
v -12.90884208679199 -29.68490409851074 -14.06196212768555
# 56 vertices

vn 0 0.38166707754135 0.9242998957634
vn 0.93507373332977 0.35445326566696 0
vn 0 -0.38166707754135 0.9242998957634
vn -0.93507373332977 -0.35445326566696 0
vn 0 -0.38166707754135 -0.9242998957634
vn 0.93507373332977 -0.35445326566696 0
vn 0.18250408768654 0.19676384329796 0.96331524848938
vn -0.18250408768654 0.19676384329796 0.96331524848938
vn -0.18250408768654 -0.19676384329796 0.96331524848938
vn 0.18250408768654 -0.19676384329796 0.96331524848938
vn 0.943204164505 0.23898783326149 -0.2307612746954
vn 0.8169732093811 0.40806415677071 -0.40747812390327
vn 0.8169732093811 0.40806415677071 0.40747812390327
vn 0.943204164505 0.23898783326149 0.2307612746954
vn 0.8169732093811 -0.40806415677071 0.40747812390327
vn 0.943204164505 -0.23898783326149 0.2307612746954
vn 0.8169732093811 -0.40806415677071 -0.40747812390327
vn 0.943204164505 -0.23898783326149 -0.2307612746954
vn -0.18250408768654 0.19676384329796 -0.96331524848938
vn 0.18250408768654 0.19676384329796 -0.96331524848938
vn 0.18250408768654 -0.19676384329796 -0.96331524848938
vn -0.18250408768654 -0.19676384329796 -0.96331524848938
vn -0.943204164505 0.23898783326149 0.2307612746954
vn -0.8169732093811 0.40806415677071 0.40747812390327
vn -0.8169732093811 0.40806415677071 -0.40747812390327
vn -0.943204164505 0.23898783326149 -0.2307612746954
vn -0.8169732093811 -0.40806415677071 -0.40747812390327
vn -0.943204164505 -0.23898783326149 -0.2307612746954
vn -0.8169732093811 -0.40806415677071 0.40747812390327
vn -0.943204164505 -0.23898783326149 0.2307612746954
vn 0.14194990694523 0.9787929058075 -0.14769805967808
vn -0.14194990694523 0.9787929058075 -0.14769805967808
vn -0.14194990694523 0.9787929058075 0.14769805967808
vn 0.14194990694523 0.9787929058075 0.14769805967808
vn 0.14194990694523 -0.9787929058075 0.14769805967808
vn -0.14194990694523 -0.9787929058075 0.14769805967808
vn -0.14194990694523 -0.9787929058075 -0.14769805967808
vn 0.14194990694523 -0.9787929058075 -0.14769805967808
vn 0 0.90179264545441 0.43216896057129
vn -0.92605197429657 0 0.377396017313
vn 0 -0.90179264545441 0.43216896057129
vn 0.92605197429657 0 0.377396017313
vn 0.46098163723946 0.88740968704224 0
vn 0.43361589312553 0 0.90109783411026
vn 0.46098163723946 -0.88740968704224 0
vn 0.43361589312553 0 -0.90109783411026
vn 0 0.90179264545441 -0.43216896057129
vn 0.92605197429657 0 -0.377396017313
vn 0 -0.90179264545441 -0.43216896057129
vn -0.92605197429657 0 -0.377396017313
vn -0.46098163723946 0.88740968704224 0
vn -0.43361589312553 0 -0.90109783411026
vn -0.46098163723946 -0.88740968704224 0
vn -0.43361589312553 0 0.90109783411026
vn 0 0.38166707754135 -0.9242998957634
vn -0.93507373332977 0.35445326566696 0
vn 0.78469371795654 0.42276784777641 0.45334658026695
vn 0.78469371795654 -0.42276787757874 0.45334661006927
vn 0.51135456562042 -0.44439476728439 0.73554730415344
vn 0.51135456562042 0.44439476728439 0.73554730415344
vn -0.51135456562042 0.44439476728439 0.73554730415344
vn -0.51135456562042 -0.44439476728439 0.73554730415344
vn -0.78469371795654 -0.42276784777641 0.45334658026695
vn -0.78469371795654 0.42276787757874 0.45334661006927
vn 0.52950012683868 -0.69002819061279 0.49344778060913
vn -0.52950012683868 -0.69002819061279 0.49344778060913
vn 0.78469371795654 -0.42276784777641 -0.45334658026695
vn 0.52950012683868 -0.69002819061279 -0.49344778060913
vn -0.52950012683868 -0.69002819061279 -0.49344778060913
vn -0.78469371795654 -0.42276787757874 -0.45334661006927
vn 0.51135456562042 -0.44439476728439 -0.73554730415344
vn -0.51135456562042 -0.44439476728439 -0.73554730415344
vn -0.52950012683868 0.69002819061279 0.49344778060913
vn 0.52950012683868 0.69002819061279 0.49344778060913
vn 0.78469371795654 0.42276787757874 -0.45334661006927
vn 0.52950012683868 0.69002819061279 -0.49344778060913
vn -0.51135456562042 0.44439476728439 -0.73554730415344
vn 0.51135456562042 0.44439476728439 -0.73554730415344
vn -0.52950012683868 0.69002819061279 -0.49344778060913
vn -0.78469371795654 0.42276784777641 -0.45334658026695
vn 0 0 0
# 81 normals

vt 0.73500001430511 0.73500001430511 0
vt 0.26499998569489 0.73500001430511 0
vt 0.26499998569489 0.26499998569489 0
vt 0.73500001430511 0.26499998569489 0
vt 0 0 0
vt 1 0 0
vt 1 1 0
vt 0 1 0
# 8 texture coordinates

o Cube.1
usemtl default
f 28/2/1 52/2/1 51/1/1 27/1/1
f 25/3/2 49/3/2 52/2/2 28/2/2
f 31/4/3 55/4/3 56/3/3 32/3/3
f 30/1/4 54/1/4 55/4/4 31/4/4
f 29/2/5 53/2/5 54/1/5 30/1/5
f 32/3/6 56/3/6 53/2/6 29/2/6
f 3/6/8 11/4/8 9/3/7 1/5/7
f 4/7/9 12/1/9 11/4/8 3/6/8
f 2/8/10 10/2/10 12/1/9 4/7/9
f 1/5/7 9/3/7 10/2/10 2/8/10
f 5/6/14 15/4/13 13/3/12 3/5/11
f 6/7/16 16/1/15 15/4/13 5/6/14
f 4/8/18 14/2/17 16/1/15 6/7/16
f 3/5/11 13/3/12 14/2/17 4/8/18
f 7/6/20 19/4/20 17/3/19 5/5/19
f 8/7/21 20/1/21 19/4/20 7/6/20
f 6/8/22 18/2/22 20/1/21 8/7/21
f 5/5/19 17/3/19 18/2/22 6/8/22
f 1/6/26 21/4/25 23/3/24 7/5/23
f 2/7/28 22/1/27 21/4/25 1/6/26
f 8/8/30 24/2/29 22/1/27 2/7/28
f 7/5/23 23/3/24 24/2/29 8/8/30
f 4/6/32 26/4/32 25/3/31 2/5/31
f 6/7/33 27/1/33 26/4/32 4/6/32
f 8/8/34 28/2/34 27/1/33 6/7/33
f 2/5/31 25/3/31 28/2/34 8/8/34
f 5/6/36 31/4/36 32/3/35 7/5/35
f 3/7/37 30/1/37 31/4/36 5/6/36
f 1/8/38 29/2/38 30/1/37 3/7/37
f 7/5/35 32/3/35 29/2/38 1/8/38
f 11/4/39 35/4/39 33/3/39 9/3/39
f 12/1/40 36/1/40 35/4/40 11/4/40
f 10/2/41 34/2/41 36/1/41 12/1/41
f 9/3/42 33/3/42 34/2/42 10/2/42
f 15/4/13 39/4/43 37/3/43 13/3/12
f 16/1/15 40/1/44 39/4/44 15/4/13
f 14/2/17 38/2/45 40/1/45 16/1/15
f 13/3/12 37/3/46 38/2/46 14/2/17
f 19/4/47 43/4/47 41/3/47 17/3/47
f 20/1/48 44/1/48 43/4/48 19/4/48
f 18/2/49 42/2/49 44/1/49 20/1/49
f 17/3/50 41/3/50 42/2/50 18/2/50
f 21/4/25 45/4/51 47/3/51 23/3/24
f 22/1/27 46/1/52 45/4/52 21/4/25
f 24/2/29 48/2/53 46/1/53 22/1/27
f 23/3/24 47/3/54 48/2/54 24/2/29
f 26/4/55 50/4/55 49/3/55 25/3/55
f 27/1/56 51/1/56 50/4/56 26/4/56
f 43/5/60 44/6/59 48/7/58 47/8/57
f 39/5/64 40/6/63 42/7/62 41/8/61
f 51/5/66 52/6/65 44/7/59 42/8/62
f 52/5/65 49/6/68 46/7/67 48/8/58
f 40/5/63 38/6/70 50/7/69 51/8/66
f 36/5/72 34/6/71 49/7/68 50/8/69
f 56/5/74 55/6/73 41/7/61 43/8/60
f 53/5/76 56/6/74 47/7/57 45/8/75
f 54/5/79 53/6/76 33/7/78 35/8/77
f 37/5/80 39/6/64 55/7/73 54/8/79
f 38/5/70 37/6/80 35/7/77 36/8/72
f 45/5/75 46/6/67 34/7/71 33/8/78
f 51/6/66 42/7/62 40/8/63
f 38/6/70 36/7/72 50/8/69
f 48/6/58 44/7/59 52/8/65
f 49/6/68 34/7/71 46/8/67
f 41/6/61 55/7/73 39/8/64
f 54/6/79 35/7/77 37/8/80
f 47/6/57 56/7/74 43/8/60
f 45/6/75 33/7/78 53/8/76

